<svg xmlns="http://www.w3.org/2000/svg" viewBox="0 0 48 48" fill="none">
  <path d="M27 12h5v5h-5zM20 12h5v5h-5zM13 12h5v5h-5zM20 5h5v5h-5zM27 5h5v5h-5zM34 12h5v5h-5zM6 12h5v5H6zM13 5h5v5h-5z" fill="#2396ED"/>
  <path d="M47 17.3c-.7-.4-2.2-.6-3.4-.4-.2-1.4-.9-2.6-2.1-3.7l-.7-.5-.5.7c-.7 1-1 2.4-.9 3.5.1.8.4 1.7 1 2.4-.5.3-1 .5-1.4.6-.9.3-1.9.4-2.8.4H.5l-.2 1c-.3 2 .1 4.1 1.1 5.9 1.1 1.9 2.8 3.2 5.1 3.9 2.4.8 5.1.9 7.5.6 1.8-.2 3.5-.7 5.1-1.5 1.3-.7 2.4-1.5 3.4-2.6 1.6-1.8 2.6-3.9 3.2-6.1h.3c1.3 0 2.7-.3 3.6-1.1.4-.3.7-.8 1-1.3l.1-.3-.5-.3z" fill="#2396ED"/>
</svg>
